<svg width="24" height="26" viewBox="0 0 24 26" fill="none" xmlns="http://www.w3.org/2000/svg">
<g clip-path="url(#clip0_2004_30)">
<path fill-rule="evenodd" clip-rule="evenodd" d="M12 0C10.5149 0 9.16236 0.78091 6.45744 2.34274L5.54257 2.871C2.83761 4.43283 1.48513 5.21374 0.742573 6.5C-2.38419e-07 7.78626 0 9.34809 0 12.4718V13.5282C0 16.652 -2.38419e-07 18.2138 0.742573 19.5C1.48513 20.7862 2.83761 21.5671 5.54257 23.129L6.45744 23.6573C9.16236 25.2191 10.5149 26 12 26C13.4852 26 14.8376 25.2191 17.5426 23.6573L18.4574 23.129C21.1624 21.5671 22.5149 20.7862 23.2574 19.5C24 18.2138 24 16.652 24 13.5282V12.4718C24 9.34809 24 7.78626 23.2574 6.5C22.5149 5.21374 21.1624 4.43283 18.4574 2.871L17.5426 2.34274C14.8376 0.78091 13.4852 0 12 0ZM7 13C7 10.3076 9.23863 8.125 12 8.125C14.7614 8.125 17 10.3076 17 13C17 15.6924 14.7614 17.875 12 17.875C9.23863 17.875 7 15.6924 7 13Z" fill="white"/>
</g>
<defs>
<clipPath id="clip0_2004_30">
<rect width="24" height="26" fill="white"/>
</clipPath>
</defs>
</svg>
