<svg width="40" height="40" viewBox="0 0 40 40" fill="none" xmlns="http://www.w3.org/2000/svg">
<g clip-path="url(#clip0_2005_89)">
<path fill-rule="evenodd" clip-rule="evenodd" d="M20 40C10.5719 40 5.85786 40 2.92894 37.071C-2.38419e-07 34.1422 0 29.428 0 20C0 10.5719 -2.38419e-07 5.85786 2.92894 2.92894C5.85786 -2.38419e-07 10.5719 0 20 0C29.428 0 34.1422 -2.38419e-07 37.071 2.92894C40 5.85786 40 10.5719 40 20C40 29.428 40 34.1422 37.071 37.071C34.1422 40 29.428 40 20 40ZM20 12.5C20.8284 12.5 21.5 13.1716 21.5 14V18.5H26C26.8284 18.5 27.5 19.1716 27.5 20C27.5 20.8284 26.8284 21.5 26 21.5H21.5V26C21.5 26.8284 20.8284 27.5 20 27.5C19.1716 27.5 18.5 26.8284 18.5 26V21.5H14C13.1716 21.5 12.5 20.8284 12.5 20C12.5 19.1716 13.1716 18.5 14 18.5H18.5V14C18.5 13.1716 19.1716 12.5 20 12.5Z" fill="white"/>
</g>
<defs>
<clipPath id="clip0_2005_89">
<rect width="40" height="40" fill="white"/>
</clipPath>
</defs>
</svg>
