<svg width="24" height="24" viewBox="0 0 24 24" fill="none" xmlns="http://www.w3.org/2000/svg">
<g clip-path="url(#clip0_2005_558)">
<path d="M19.2 7.2C19.2 11.1764 15.9764 14.4 12 14.4C8.02354 14.4 4.79999 11.1764 4.79999 7.2C4.79999 3.22355 8.02354 0 12 0C15.9764 0 19.2 3.22355 19.2 7.2Z" fill="#CACACA"/>
<path d="M3.64019 10.5401C1.46596 11.7792 0 14.1184 0 16.8C0 20.7765 3.22355 24 7.2 24C11.1764 24 14.4 20.7765 14.4 16.8C14.4 16.4925 14.3807 16.1893 14.3432 15.8919C13.5961 16.0929 12.8106 16.2 12 16.2C8.20967 16.2 4.96658 13.8569 3.64019 10.5401Z" fill="#CACACA"/>
<path d="M16.0639 15.2323C16.1533 15.7415 16.2 16.2653 16.2 16.8C16.2 19.3087 15.1735 21.5778 13.5175 23.2099C14.5019 23.715 15.6176 24 16.8 24C20.7764 24 24 20.7765 24 16.8C24 14.1184 22.534 11.7792 20.3598 10.5401C19.5451 12.5773 18.0074 14.2471 16.0639 15.2323Z" fill="#CACACA"/>
</g>
<defs>
<clipPath id="clip0_2005_558">
<rect width="24" height="24" fill="white"/>
</clipPath>
</defs>
</svg>
