<svg width="45" height="38" viewBox="0 0 45 38" fill="none" xmlns="http://www.w3.org/2000/svg">
<g clip-path="url(#clip0_2005_56)">
<path d="M0.580986 9.40452C0.580986 7.72772 0.580986 6.8893 0.732994 6.19094C1.40216 3.11659 4.17638 0.711816 7.72306 0.131765C8.52871 1.41561e-08 9.49593 0 11.4304 0C12.2779 0 12.7017 0 13.109 0.033022C14.8648 0.175351 16.5304 0.773376 17.8881 1.74897C18.203 1.97526 18.5026 2.23503 19.1019 2.75452L20.3081 3.8C22.0963 5.34998 22.9903 6.12497 24.0609 6.64132C24.6489 6.92495 25.273 7.14894 25.9202 7.30888C27.0984 7.6 28.3627 7.6 30.8915 7.6H31.7106C37.4806 7.6 40.3653 7.6 42.2407 9.06197C42.4132 9.19646 42.5774 9.33877 42.7323 9.48828C44.419 11.1138 44.419 13.6145 44.419 18.616V22.8C44.419 29.9653 44.419 33.5481 41.851 35.774C39.2832 38 35.1499 38 26.8838 38H18.1162C9.85001 38 5.71694 38 3.14895 35.774C0.580986 33.5481 0.580986 29.9653 0.580986 22.8V9.40452Z" fill="#1C7CF3"/>
<path fill-rule="evenodd" clip-rule="evenodd" d="M23.048 15.2C23.048 14.413 23.784 13.775 24.6919 13.775H35.6514C36.5593 13.775 37.2953 14.413 37.2953 15.2C37.2953 15.987 36.5593 16.625 35.6514 16.625H24.6919C23.784 16.625 23.048 15.987 23.048 15.2Z" fill="white"/>
<path d="M33.4279 1.93978C33.0915 1.89999 32.6906 1.89999 31.889 1.89999H22.5L23.3108 2.62792C24.7706 3.93867 25.3317 4.42796 25.9801 4.75182C26.3564 4.9398 26.7556 5.08827 27.1696 5.19427C27.8831 5.37686 28.6654 5.38722 30.7297 5.38722H31.4627C33.6598 5.38718 35.4311 5.38716 36.8326 5.54537C37.1822 5.58484 37.5191 5.63505 37.8433 5.69999C37.4365 3.72994 35.6608 2.20371 33.4279 1.93978Z" fill="#1C7CF3"/>
</g>
<defs>
<clipPath id="clip0_2005_56">
<rect width="45" height="38" fill="white"/>
</clipPath>
</defs>
</svg>
