<svg width="14" height="11" viewBox="0 0 14 11" fill="none" xmlns="http://www.w3.org/2000/svg">
<path d="M1.08553 3.18529C1.08553 2.7808 1.08553 2.57855 1.12317 2.41009C1.28887 1.66847 1.97583 1.08837 2.85406 0.948442C3.05356 0.916656 3.29306 0.916656 3.77207 0.916656C3.98194 0.916656 4.08688 0.916656 4.18773 0.924622C4.62252 0.958956 5.03495 1.10322 5.37115 1.33856C5.44912 1.39314 5.52332 1.45581 5.67171 1.58113L5.97039 1.83332C6.41318 2.20722 6.63457 2.39417 6.89966 2.51873C7.04528 2.58715 7.19981 2.64118 7.36009 2.67976C7.65182 2.74999 7.96489 2.74999 8.59107 2.74999H8.7939C10.2227 2.74999 10.937 2.74999 11.4014 3.10266C11.4441 3.1351 11.4848 3.16943 11.5231 3.2055C11.9408 3.59761 11.9408 4.20086 11.9408 5.40736V6.41666C11.9408 8.14512 11.9408 9.0094 11.3049 9.54634C10.669 10.0833 9.64555 10.0833 7.59868 10.0833H5.42763C3.38074 10.0833 2.3573 10.0833 1.72141 9.54634C1.08553 9.0094 1.08553 8.14512 1.08553 6.41666V3.18529Z" fill="white" fill-opacity="0.6"/>
<path fill-rule="evenodd" clip-rule="evenodd" d="M6.64885 4.58331C6.64885 4.39347 6.83111 4.23956 7.05592 4.23956H9.76974C9.99455 4.23956 10.1768 4.39347 10.1768 4.58331C10.1768 4.77315 9.99455 4.92706 9.76974 4.92706H7.05592C6.83111 4.92706 6.64885 4.77315 6.64885 4.58331Z" fill="white" fill-opacity="0.6"/>
<path d="M9.21916 1.3846C9.13584 1.375 9.03657 1.375 8.83808 1.375H6.51316L6.71392 1.5506C7.07541 1.86679 7.21435 1.98482 7.3749 2.06294C7.46809 2.10829 7.56693 2.1441 7.66946 2.16967C7.84613 2.21372 8.03984 2.21622 8.55102 2.21622H8.73252C9.27658 2.21621 9.71519 2.2162 10.0622 2.25437C10.1488 2.26389 10.2322 2.276 10.3125 2.29167C10.2118 1.81643 9.77207 1.44826 9.21916 1.3846Z" fill="white" fill-opacity="0.6"/>
</svg>
