<svg width="24" height="20" viewBox="0 0 24 20" fill="none" xmlns="http://www.w3.org/2000/svg">
<path d="M2 5.79145C2 5.05601 2 4.68828 2.06935 4.38198C2.37464 3.03358 3.64031 1.97886 5.25839 1.72445C5.62595 1.66666 6.06722 1.66666 6.94975 1.66666C7.33642 1.66666 7.52976 1.66666 7.71557 1.68114C8.51665 1.74356 9.27652 2.00586 9.89594 2.43375C10.0396 2.533 10.1763 2.64693 10.4497 2.87478L11 3.33332C11.8158 4.01314 12.2237 4.35305 12.7121 4.57951C12.9804 4.70391 13.2651 4.80216 13.5604 4.87231C14.0979 4.99999 14.6747 4.99999 15.8284 4.99999H16.2021C18.8345 4.99999 20.1506 4.99999 21.0062 5.64121C21.0849 5.70019 21.1598 5.76261 21.2305 5.82818C22 6.54111 22 7.63794 22 9.83157V11.6667C22 14.8093 22 16.3807 20.8284 17.357C19.6569 18.3333 17.7712 18.3333 14 18.3333H10C6.22876 18.3333 4.34315 18.3333 3.17157 17.357C2 16.3807 2 14.8093 2 11.6667V5.79145Z" fill="white"/>
<path fill-rule="evenodd" clip-rule="evenodd" d="M12.25 8.33331C12.25 7.98814 12.5858 7.70831 13 7.70831H18C18.4142 7.70831 18.75 7.98814 18.75 8.33331C18.75 8.67848 18.4142 8.95831 18 8.95831H13C12.5858 8.95831 12.25 8.67848 12.25 8.33331Z" fill="white"/>
<path d="M16.9856 2.51745C16.8321 2.5 16.6492 2.5 16.2835 2.5H12L12.3699 2.81927C13.0359 3.39416 13.2919 3.60876 13.5877 3.7508C13.7594 3.83325 13.9415 3.89837 14.1304 3.94486C14.4559 4.02494 14.8128 4.02948 15.7546 4.02948H16.089C17.0914 4.02947 17.8995 4.02946 18.5389 4.09885C18.6984 4.11616 18.8521 4.13818 19 4.16667C18.8144 3.30261 18.0043 2.63321 16.9856 2.51745Z" fill="white"/>
</svg>
