<svg width="16" height="16" viewBox="0 0 16 16" fill="none" xmlns="http://www.w3.org/2000/svg">
<path d="M12.789 5.20345L10.8125 3.22505C9.4614 1.87261 8.78587 1.19639 8.06027 1.35647C7.33473 1.51655 7.00573 2.41438 6.3478 4.21005L5.90249 5.42541C5.72709 5.90412 5.63939 6.14348 5.48159 6.32863C5.41079 6.41171 5.33024 6.48592 5.24167 6.54969C5.04429 6.69181 4.79874 6.75948 4.30763 6.89488C3.20071 7.20001 2.64725 7.35261 2.43869 7.71475C2.34853 7.87128 2.30161 8.04901 2.30275 8.22974C2.30539 8.64768 2.71132 9.05401 3.52317 9.86668L4.46623 10.8109L1.4823 13.7976C1.28368 13.9964 1.28368 14.3188 1.4823 14.5176C1.68092 14.7164 2.00295 14.7164 2.20157 14.5176L5.18561 11.5307L6.16294 12.509C6.97993 13.3268 7.38847 13.7357 7.80893 13.7363C7.98613 13.7366 8.16027 13.6905 8.3142 13.6027C8.67947 13.3943 8.83287 12.8367 9.13967 11.7217C9.2746 11.2315 9.342 10.9863 9.4836 10.789C9.5456 10.7027 9.61747 10.6239 9.69787 10.5543C9.8814 10.3953 10.1192 10.306 10.5948 10.1273L11.8241 9.66541C13.6 8.99821 14.4879 8.66461 14.6445 7.94101C14.8009 7.21735 14.1303 6.54605 12.789 5.20345Z" fill="white"/>
</svg>
