<svg width="20" height="20" viewBox="0 0 20 20" fill="none" xmlns="http://www.w3.org/2000/svg">
<g clip-path="url(#clip0_2005_1614)">
<path d="M16.6357 13.6701L18.3521 8.5208C19.8516 4.02242 20.6013 1.77322 19.414 0.585948C18.2268 -0.601312 15.9776 0.148418 11.4792 1.64788L6.32987 3.36432C2.69923 4.57453 0.883923 5.17964 0.368062 6.06698C-0.122688 6.91112 -0.122688 7.95369 0.368062 8.7978C0.883923 9.6852 2.69923 10.2903 6.32987 11.5005C6.77981 11.6505 7.28601 11.5434 7.62294 11.2096L13.1286 5.75495C13.4383 5.44808 13.9382 5.45041 14.245 5.76015C14.5519 6.06989 14.5496 6.56975 14.2398 6.87662L8.8231 12.2432C8.4518 12.6111 8.3342 13.1742 8.4995 13.6701C9.7097 17.3007 10.3148 19.1161 11.2022 19.6319C12.0463 20.1227 13.0889 20.1227 13.933 19.6319C14.8204 19.1161 15.4255 17.3008 16.6357 13.6701Z" fill="white"/>
</g>
<defs>
<clipPath id="clip0_2005_1614">
<rect width="20" height="20" fill="white"/>
</clipPath>
</defs>
</svg>
