<svg width="12" height="12" viewBox="0 0 12 12" fill="none" xmlns="http://www.w3.org/2000/svg">
<path d="M4.57658 2.70419C5.2099 1.56807 5.52655 1 6 1C6.47345 1 6.7901 1.56806 7.4234 2.70419L7.58725 2.99812C7.76725 3.32097 7.8572 3.4824 7.99755 3.58891C8.13785 3.69542 8.31255 3.73495 8.66205 3.81402L8.98025 3.88601C10.2101 4.16428 10.825 4.30341 10.9713 4.77387C11.1176 5.2443 10.6984 5.73455 9.85995 6.71495L9.64305 6.9686C9.4048 7.2472 9.28565 7.3865 9.23205 7.55885C9.1785 7.7312 9.1965 7.91705 9.2325 8.2888L9.2653 8.6272C9.39205 9.9353 9.45545 10.5894 9.07245 10.8801C8.6894 11.1708 8.11365 10.9058 6.96215 10.3756L6.66425 10.2384C6.33705 10.0878 6.17345 10.0124 6 10.0124C5.82655 10.0124 5.66295 10.0878 5.33575 10.2384L5.03785 10.3756C3.88634 10.9058 3.31059 11.1708 2.92758 10.8801C2.54456 10.5894 2.60794 9.9353 2.7347 8.6272L2.76749 8.2888C2.80352 7.91705 2.82153 7.7312 2.76793 7.55885C2.71434 7.3865 2.59522 7.2472 2.35696 6.9686L2.14005 6.71495C1.30163 5.73455 0.882411 5.2443 1.02871 4.77387C1.17501 4.30341 1.78993 4.16428 3.01977 3.88601L3.33795 3.81402C3.68743 3.73495 3.86217 3.69542 4.00247 3.58891C4.14278 3.4824 4.23277 3.32097 4.41274 2.99812L4.57658 2.70419Z" fill="white"/>
</svg>
