<svg width="16" height="16" viewBox="0 0 16 16" fill="none" xmlns="http://www.w3.org/2000/svg">
<path d="M6.1021 3.60557C6.94653 2.09073 7.36873 1.33331 8 1.33331C8.63126 1.33331 9.05346 2.09073 9.89786 3.60556L10.1163 3.99747C10.3563 4.42793 10.4763 4.64317 10.6634 4.78519C10.8505 4.9272 11.0834 4.97991 11.5494 5.08535L11.9737 5.18133C13.6134 5.55235 14.4333 5.73786 14.6284 6.36513C14.8235 6.99238 14.2645 7.64605 13.1466 8.95325L12.8574 9.29145C12.5397 9.66291 12.3809 9.84865 12.3094 10.0784C12.238 10.3082 12.262 10.556 12.31 11.0517L12.3537 11.5029C12.5227 13.247 12.6073 14.1191 12.0966 14.5068C11.5859 14.8944 10.8182 14.541 9.28286 13.8341L8.88566 13.6512C8.4494 13.4503 8.23126 13.3498 8 13.3498C7.76873 13.3498 7.5506 13.4503 7.11433 13.6512L6.71713 13.8341C5.18178 14.541 4.41412 14.8944 3.90343 14.5068C3.39274 14.1191 3.47725 13.247 3.64626 11.5029L3.68998 11.0517C3.73802 10.556 3.76203 10.3082 3.69057 10.0784C3.61912 9.84865 3.46028 9.66291 3.14261 9.29145L2.8534 8.95325C1.7355 7.64605 1.17654 6.99238 1.37161 6.36513C1.56668 5.73786 2.38657 5.55235 4.02636 5.18133L4.45059 5.08535C4.91656 4.97991 5.14955 4.9272 5.33662 4.78519C5.5237 4.64317 5.64368 4.42794 5.88364 3.99747L6.1021 3.60557Z" fill="#E9980B"/>
</svg>
